<?xml version="1.0" standalone="no"?>
<!DOCTYPE svg PUBLIC "-//W3C//DTD SVG 20010904//EN"
 "http://www.w3.org/TR/2001/REC-SVG-20010904/DTD/svg10.dtd">
<svg version="1.0" xmlns="http://www.w3.org/2000/svg"
 width="194.000000pt" height="61.000000pt" viewBox="0 0 194.000000 61.000000"
 preserveAspectRatio="xMidYMid meet">

<g transform="translate(0.000000,61.000000) scale(0.100000,-0.100000)"
fill="#000000" stroke="none">
<path d="M230 591 c-5 -11 -10 -56 -10 -100 l0 -81 -105 0 -105 0 0 -100 0
-100 114 0 c95 0 115 -3 120 -16 3 -9 6 -54 6 -100 l0 -84 840 0 840 0 0 100
0 100 -118 0 c-78 0 -122 4 -130 12 -7 7 -12 43 -12 90 0 97 2 98 149 98 l111
0 0 100 0 100 -845 0 c-824 0 -845 0 -855 -19z"/>
</g>
</svg>
